<svg xmlns="http://www.w3.org/2000/svg" version="1.1" xmlns:xlink="http://www.w3.org/1999/xlink" xmlns:svgjs="http://svgjs.com/svgjs" width="1000" height="1000"><rect width="1000" height="1000" rx="500" ry="500" fill="#555555"></rect><g transform="matrix(3.321033210332103,0,0,3.321033210332103,50.83171301134399,51.73162505283568)"><svg xmlns="http://www.w3.org/2000/svg" version="1.1" xmlns:xlink="http://www.w3.org/1999/xlink" xmlns:svgjs="http://svgjs.com/svgjs" width="271" height="270"><svg width="271" height="270" viewBox="0 0 271 270" fill="none" xmlns="http://www.w3.org/2000/svg">
<path d="M111.467 1.30814C64.1333 10.5081 25.7333 41.9748 8.93333 85.4415C2.4 102.508 0 115.975 0 134.908C0 169.841 10.5333 197.975 33.4667 224.641C52 246.241 77.4667 261.041 107.2 267.575C117.467 269.975 122.667 270.241 139.467 269.708C162.933 269.041 174.133 266.375 193.333 257.308C209.467 249.708 219.733 242.241 232.533 228.908C250.4 210.108 260.8 191.441 267.067 166.508C271.333 150.108 271.333 119.975 267.2 103.441C260.8 77.9748 249.333 57.7082 230.933 39.4415C212.267 20.7748 191.067 8.90814 165.467 2.77481C153.467 -0.158523 123.333 -0.958531 111.467 1.30814ZM130.8 25.9748V36.5081L123.867 37.4415C76.1333 43.4415 41.4667 78.1081 36.1333 124.908C34.9333 135.441 36 154.508 38 156.375C38.2667 156.775 58.4 145.575 82.6667 131.575C106.933 117.575 127.6 105.708 128.8 105.308C130.667 104.508 130.8 105.975 130.533 116.775L130.133 129.175L88.1333 153.441C65.0667 166.775 46 178.375 45.8667 179.041C45.6 179.841 48.4 184.908 52.1333 190.508C59.4667 201.441 71.6 213.441 80.8 218.908L86.8 222.375V234.241V246.108L79.8667 242.641C48.5333 226.775 25.7333 198.108 17.2 163.708C13.0667 147.308 13.0667 121.975 17.3333 106.241C29.4667 60.3748 64 27.7081 110.933 17.4415C115.6 16.5081 122 15.5748 125.2 15.5748L130.8 15.4415V25.9748ZM169.467 18.9081C198 25.9748 226.267 47.9748 240.8 74.3748L245.733 83.4415H233.867H222L219.467 79.0415C215.2 71.7081 201.2 57.9748 191.867 51.8415C184.667 47.1748 167.733 39.4415 164.8 39.4415C164.4 39.4415 164.133 64.3748 164.133 94.7748C164.133 127.308 164.667 150.108 165.333 150.108C166 150.108 185.733 139.041 209.067 125.575C256.933 97.8415 252.933 98.7748 254.4 114.908L255.2 123.041L210 149.041L164.8 175.175L164.4 209.708L164.133 244.375L157.067 245.308C153.333 245.708 148.8 246.108 147.2 246.108H144.133V130.641V15.0415L152.4 15.9748C156.933 16.3748 164.667 17.7081 169.467 18.9081Z" fill="white"></path>
</svg></svg></g></svg>